# xmcd CD database file
#
# Track frame offsets:
#	150
#	31551
#	59606
#	85730
#	108525
#	130839
#	150554
#	176088
#	196182
#	219264
#	240668
#
# Disc length: 3542 seconds
#
# Revision: 0
# Processed by: cddbd v1.5.1PL0 Copyright (c) Steve Scherf et al.
# Submitted via: CDex 1.51
#
DISCID=890dd40b
DTITLE=Cosa Nostra Jazz Band - Cosa Nostra Jazz Band
DYEAR=2004
DGENRE=Jazz
TTITLE0=I've found a new baby
TTITLE1=On the sunny side of the street
TTITLE2=That's a plenty
TTITLE3=Rose de Picardie
TTITLE4=It don't mean a thing
TTITLE5=Big City Blues
TTITLE6=All of me
TTITLE7=Tiger rag
TTITLE8=Si tu vois ta mère
TTITLE9=Royal Garden Blues
TTITLE10=The sheik of Araby
EXTD=YEAR: 2004
EXTT0=
EXTT1=
EXTT2=
EXTT3=
EXTT4=
EXTT5=
EXTT6=
EXTT7=
EXTT8=
EXTT9=
EXTT10=
PLAYORDER=
